In this sci-fi action drama, an unlikely group of soldiers and scientists unites to save the world from destruction. After investigating strange phenomena from around the world, Dr. John Keyes (Aaron Eckhart) finds that Earth's electromagnetic forces have started to collapse due to a lack of movement in the molten ore at its centre. Keyes must now recruit a team for a mission to save the world.

Starring: Aaron Eckhart, Hilary Swank, Delroy Lindo, Stanley Tucci, D.J. Qualls, Richard Jenkins, Tch?ky Karyo, Bruce Greenwood, Alfre Woodard, Tom Schilte, DJ Qualls
Director: Jon Amiel

 
http://www.imdb.com/title/tt0298814/

 
http://stpicz.com/9916_vlcsnap_2013_03_06_09h57m44s131_y6we.png 
http://stpicz.com/4542_vlcsnap_2013_03_06_10h01m46s242_9sfz.png 
http://stpicz.com/6754_vlcsnap_2013_03_06_09h53m57s165_3ndl.png 
http://stpicz.com/8494_vlcsnap_2013_03_06_10h02m03s161_ypyj.png 
http://stpicz.com/4681_vlcsnap_2013_03_06_10h03m21s176_t8nu.png 
http://stpicz.com/7926_vlcsnap_2013_03_06_10h06m03s6_gu5d.png



General
Unique ID: 120663187272845158764727805035003569629 (0x5AC6E27238F8C055BDF5FCAF6350E5DD)
Complete name: E:The Core (2003) 720p MKV x264 AC3 BRrip [Pioneer].mkv
Format: Matroska
Format version: Version 2
File size: 2.07 GiB
Duration: 2h 14mn
Overall bit rate: 2 196 Kbps
Writing application: HandBrake 0.9.8
Writing library: libmkv 0.6.5

Video
ID: 1
Format: AVC
Format/Info: Advanced Video Codec
Format profile: High@L3.1
Format settings, CABAC: Yes
Format settings, ReFrames: 4 frames
Codec ID: V_MPEG4/ISO/AVC
Duration: 2h 14mn
Bit rate: 2 000 Kbps
Width: 1 280 pixels
Height: 544 pixels
Display aspect ratio: 2.35:1
Frame rate mode: Constant
Frame rate: 23.976 fps
Color space: YUV
Chroma subsampling: 4:2:0
Bit depth: 8 bits
Scan type: Progressive
Bits/(Pixel*Frame): 0.120
Stream size: 1.85 GiB (89%)
Writing library: x264 core 120
Language: English
Default: Yes
Forced: No
Color primaries: BT.709
Transfer characteristics: BT.709
Matrix coefficients: BT.709

Audio
ID: 2
Format: AC-3
Format/Info: Audio Coding 3
Mode extension: CM (complete main)
Format settings, Endianness: Big
Codec ID: A_AC3
Duration: 2h 14mn
Bit rate mode: Constant
Bit rate: 192 Kbps
Channel(s): 6 channels
Channel positions: Front: L C R, Side: L R, LFE
Sampling rate: 48.0 KHz
Bit depth: 16 bits
Compression mode: Lossy
Stream size: 185 MiB (9%)
Language: English
Default: Yes
Forced: No